Format                         : AVI
Format/Info                    : Audio Video Interleave
File size                      : 177 MiB
Duration                       : 22mn 47s
Overall bit rate               : 1 084 Kbps
Writing application            : Lavf53.10.0

Video
ID                             : 0
Format                         : MPEG-4 Visual
Format profile                 : Advanced Simple@L5
Format settings, BVOP          : No
Format settings, QPel          : No
Format settings, GMC           : No warppoints
Format settings, Matrix        : Default (H.263)
Codec ID                       : XVID
Codec ID/Hint                  : XviD
Duration                       : 22mn 47s
Bit rate                       : 944 Kbps
Width                          : 624 pixels
Height                         : 352 pixels
Display aspect ratio           : 16:9
Frame rate                     : 23.976 fps
Color space                    : YUV
Chroma subsampling             : 4:2:0
Bit depth                      : 8 bits
Scan type                      : Progressive
Compression mode               : Lossy
Bits/(Pixel*Frame)             : 0.179
Stream size                    : 154 MiB (87%)
Writing library                : XviD 64

Audio
ID                             : 1
Format                         : MPEG Audio
Format version                 : Version 1
Format profile                 : Layer 3
Codec ID                       : 55
Codec ID/Hint                  : MP3
Duration                       : 22mn 47s
Bit rate mode                  : Constant
Bit rate                       : 128 Kbps
Channel(s)                     : 2 channels
Sampling rate                  : 44.1 KHz
Compression mode               : Lossy
Stream size                    : 20.9 MiB (12%)
Alignment                      : Aligned on interleaves
Interleave, duration           : 26 ms (0.63 video frame)